name C:/MyDriveSym/Projects/mobilecap/Data\Session20210830_0002\mocap\ForceDataProcessed\walkingTS3_forces.mot
datacolumns 19
datarows 9
range 0.68450000 0.68850000
endheader 
time	R_ground_force_vx	R_ground_force_vy	R_ground_force_vz	R_ground_force_px	R_ground_force_py	R_ground_force_pz	R_ground_torque_x	R_ground_torque_y	R_ground_torque_z	L_ground_force_vx	L_ground_force_vy	L_ground_force_vz	L_ground_force_px	L_ground_force_py	L_ground_force_pz	L_ground_torque_x	L_ground_torque_y	L_ground_torque_z	
          0.68450000	         13.25362400	         57.09824600	         -5.46958200	          0.40285000	          0.00600000	         -0.14344000	          0.00000000	         -0.26545900	          0.00000000	       -133.30307800	        880.63228700	         73.75327100	          0.90274000	          0.00600000	         -0.38376200	          0.00000000	          2.46043400	          0.00000000	
          0.68500000	         12.99342800	         55.84296600	         -5.35547600	          0.40372500	          0.00600000	         -0.14343000	          0.00000000	         -0.25930800	          0.00000000	       -133.25917400	        881.14740800	         73.92924200	          0.90297300	          0.00600000	         -0.38387500	          0.00000000	          2.47294500	          0.00000000	
          0.68550000	         12.73567200	         54.60087600	         -5.24249900	          0.40462500	          0.00600000	         -0.14341900	          0.00000000	         -0.25318900	          0.00000000	       -133.21135200	        881.64393700	         74.10215600	          0.90320500	          0.00600000	         -0.38398700	          0.00000000	          2.48535200	          0.00000000	
          0.68600000	         12.48035300	         53.37193900	         -5.13064900	          0.40555300	          0.00600000	         -0.14340700	          0.00000000	         -0.24710000	          0.00000000	       -133.15963000	        882.12189800	         74.27201300	          0.90343700	          0.00600000	         -0.38410000	          0.00000000	          2.49765200	          0.00000000	
          0.68650000	         12.22746800	         52.15611500	         -5.01992200	          0.40650800	          0.00600000	         -0.14339400	          0.00000000	         -0.24104200	          0.00000000	       -133.10402700	        882.58131300	         74.43881300	          0.90366900	          0.00600000	         -0.38421300	          0.00000000	          2.50984600	          0.00000000	
          0.68700000	         11.97701400	         50.95336300	         -4.91031800	          0.40749200	          0.00600000	         -0.14337900	          0.00000000	         -0.23501500	          0.00000000	       -133.04456200	        883.02220800	         74.60255600	          0.90390100	          0.00600000	         -0.38432600	          0.00000000	          2.52193300	          0.00000000	
          0.68750000	         11.72898700	         49.76364300	         -4.80183400	          0.40850700	          0.00600000	         -0.14336300	          0.00000000	         -0.22901900	          0.00000000	       -132.98125500	        883.44461100	         74.76324400	          0.90413200	          0.00600000	         -0.38443800	          0.00000000	          2.53391100	          0.00000000	
          0.68800000	         11.48338200	         48.58691000	         -4.69446500	          0.40955500	          0.00600000	         -0.14334500	          0.00000000	         -0.22305400	          0.00000000	       -132.91412500	        883.84854900	         74.92087600	          0.90436400	          0.00600000	         -0.38455100	          0.00000000	          2.54578000	          0.00000000	
          0.68850000	         11.24019500	         47.42312100	         -4.58821100	          0.41063700	          0.00600000	         -0.14332600	          0.00000000	         -0.21711900	          0.00000000	       -132.84319200	        884.23405200	         75.07545500	          0.90459500	          0.00600000	         -0.38466300	          0.00000000	          2.55753900	          0.00000000	
